<svg width="29" height="28" viewBox="0 0 29 28" fill="none" xmlns="http://www.w3.org/2000/svg">
<path d="M9.7917 2.91663C9.7917 2.68456 9.69952 2.462 9.53542 2.29791C9.37133 2.13381 9.14877 2.04163 8.9167 2.04163C8.68464 2.04163 8.46208 2.13381 8.29799 2.29791C8.13389 2.462 8.0417 2.68456 8.0417 2.91663V4.75996C6.3617 4.89413 5.26037 5.22313 4.4507 6.03396C3.63987 6.84363 3.31087 7.94613 3.17554 9.62496H26.3245C26.1892 7.94496 25.8602 6.84363 25.0494 6.03396C24.2397 5.22313 23.1372 4.89413 21.4584 4.75879V2.91663C21.4584 2.68456 21.3662 2.462 21.2021 2.29791C21.038 2.13381 20.8154 2.04163 20.5834 2.04163C20.3513 2.04163 20.1287 2.13381 19.9647 2.29791C19.8006 2.462 19.7084 2.68456 19.7084 2.91663V4.68179C18.9325 4.66663 18.0622 4.66663 17.0834 4.66663H12.4167C11.4379 4.66663 10.5675 4.66663 9.7917 4.68179V2.91663Z" fill="currentColor"/>
<path fill-rule="evenodd" clip-rule="evenodd" d="M3.08337 14C3.08337 13.0212 3.08337 12.1508 3.09854 11.375H26.4015C26.4167 12.1508 26.4167 13.0212 26.4167 14V16.3333C26.4167 20.7328 26.4167 22.9332 25.0494 24.2993C23.682 25.6655 21.4829 25.6667 17.0834 25.6667H12.4167C8.01721 25.6667 5.81687 25.6667 4.45071 24.2993C3.08454 22.932 3.08337 20.7328 3.08337 16.3333V14ZM20.5834 16.3333C20.8928 16.3333 21.1895 16.2104 21.4083 15.9916C21.6271 15.7728 21.75 15.4761 21.75 15.1667C21.75 14.8572 21.6271 14.5605 21.4083 14.3417C21.1895 14.1229 20.8928 14 20.5834 14C20.274 14 19.9772 14.1229 19.7584 14.3417C19.5396 14.5605 19.4167 14.8572 19.4167 15.1667C19.4167 15.4761 19.5396 15.7728 19.7584 15.9916C19.9772 16.2104 20.274 16.3333 20.5834 16.3333ZM20.5834 21C20.8928 21 21.1895 20.8771 21.4083 20.6583C21.6271 20.4395 21.75 20.1428 21.75 19.8333C21.75 19.5239 21.6271 19.2272 21.4083 19.0084C21.1895 18.7896 20.8928 18.6667 20.5834 18.6667C20.274 18.6667 19.9772 18.7896 19.7584 19.0084C19.5396 19.2272 19.4167 19.5239 19.4167 19.8333C19.4167 20.1428 19.5396 20.4395 19.7584 20.6583C19.9772 20.8771 20.274 21 20.5834 21ZM15.9167 15.1667C15.9167 15.4761 15.7938 15.7728 15.575 15.9916C15.3562 16.2104 15.0595 16.3333 14.75 16.3333C14.4406 16.3333 14.1439 16.2104 13.9251 15.9916C13.7063 15.7728 13.5834 15.4761 13.5834 15.1667C13.5834 14.8572 13.7063 14.5605 13.9251 14.3417C14.1439 14.1229 14.4406 14 14.75 14C15.0595 14 15.3562 14.1229 15.575 14.3417C15.7938 14.5605 15.9167 14.8572 15.9167 15.1667ZM15.9167 19.8333C15.9167 20.1428 15.7938 20.4395 15.575 20.6583C15.3562 20.8771 15.0595 21 14.75 21C14.4406 21 14.1439 20.8771 13.9251 20.6583C13.7063 20.4395 13.5834 20.1428 13.5834 19.8333C13.5834 19.5239 13.7063 19.2272 13.9251 19.0084C14.1439 18.7896 14.4406 18.6667 14.75 18.6667C15.0595 18.6667 15.3562 18.7896 15.575 19.0084C15.7938 19.2272 15.9167 19.5239 15.9167 19.8333ZM8.91671 16.3333C9.22613 16.3333 9.52287 16.2104 9.74166 15.9916C9.96046 15.7728 10.0834 15.4761 10.0834 15.1667C10.0834 14.8572 9.96046 14.5605 9.74166 14.3417C9.52287 14.1229 9.22613 14 8.91671 14C8.60729 14 8.31054 14.1229 8.09175 14.3417C7.87296 14.5605 7.75004 14.8572 7.75004 15.1667C7.75004 15.4761 7.87296 15.7728 8.09175 15.9916C8.31054 16.2104 8.60729 16.3333 8.91671 16.3333ZM8.91671 21C9.22613 21 9.52287 20.8771 9.74166 20.6583C9.96046 20.4395 10.0834 20.1428 10.0834 19.8333C10.0834 19.5239 9.96046 19.2272 9.74166 19.0084C9.52287 18.7896 9.22613 18.6667 8.91671 18.6667C8.60729 18.6667 8.31054 18.7896 8.09175 19.0084C7.87296 19.2272 7.75004 19.5239 7.75004 19.8333C7.75004 20.1428 7.87296 20.4395 8.09175 20.6583C8.31054 20.8771 8.60729 21 8.91671 21Z" fill="currentColor"/>
</svg>
