<svg width="29" height="28" viewBox="0 0 29 28" fill="none" xmlns="http://www.w3.org/2000/svg">
<path fill-rule="evenodd" clip-rule="evenodd" d="M9.11663 1.16663C7.98209 1.16663 6.89402 1.62756 6.09178 2.44803C5.28954 3.26851 4.83885 4.3813 4.83885 5.54163V6.04213C4.83885 6.82613 5.06643 7.55588 5.45827 8.16663H3.98329C3.30257 8.16663 2.64973 8.44319 2.16839 8.93547C1.68704 9.42775 1.41663 10.0954 1.41663 10.7916L1.41663 12.5416C1.41663 13.2378 1.68704 13.9055 2.16839 14.3978C2.64973 14.8901 3.30257 15.1666 3.98329 15.1666H13.3944V8.16663H15.1055V15.1666H24.5166C25.1973 15.1666 25.8502 14.8901 26.3315 14.3978C26.8129 13.9055 27.0833 13.2378 27.0833 12.5416V10.7916C27.0833 10.0954 26.8129 9.42775 26.3315 8.93547C25.8502 8.44319 25.1973 8.16663 24.5166 8.16663H23.0416C23.4335 7.55588 23.6611 6.82613 23.6611 6.04213V5.54163C23.6611 4.3813 23.2104 3.26851 22.4081 2.44803C21.6059 1.62756 20.5178 1.16663 19.3833 1.16663C17.205 1.16663 15.2972 2.35663 14.25 4.13463C13.7174 3.22903 12.9647 2.47977 12.0652 1.95969C11.1657 1.43961 10.1499 1.1664 9.11663 1.16663ZM15.1055 8.16663H19.8727C21.0191 8.16663 21.95 7.21463 21.95 6.04213V5.54163C21.95 4.84543 21.6795 4.17775 21.1982 3.68547C20.7169 3.19319 20.064 2.91663 19.3833 2.91663C18.2488 2.91663 17.1607 3.37756 16.3584 4.19803C15.5562 5.01851 15.1055 6.1313 15.1055 7.29163V8.16663ZM13.3944 8.16663H8.62725C7.4808 8.16663 6.54996 7.21463 6.54996 6.04213V5.54163C6.54996 4.84543 6.82038 4.17775 7.30172 3.68547C7.78306 3.19319 8.4359 2.91663 9.11663 2.91663C9.67839 2.91663 10.2347 3.02979 10.7537 3.24965C11.2727 3.46952 11.7442 3.79178 12.1415 4.19803C12.5387 4.60429 12.8538 5.08659 13.0688 5.61739C13.2838 6.14819 13.3944 6.71709 13.3944 7.29163V8.16663Z" fill="currentColor"/>
<path d="M13.3526 16.3334H2.58337V22.4584C2.58337 23.6187 3.05613 24.7315 3.89764 25.552C4.73915 26.3724 5.88048 26.8334 7.07055 26.8334H13.3526V16.3334ZM15.1475 26.8334H21.4295C22.6196 26.8334 23.7609 26.3724 24.6024 25.552C25.444 24.7315 25.9167 23.6187 25.9167 22.4584V16.3334H15.1475V26.8334Z" fill="currentColor"/>
</svg>
