<svg width="29" height="28" viewBox="0 0 29 28" fill="none" xmlns="http://www.w3.org/2000/svg">
<path d="M18.4412 3.53172C17.377 2.38273 15.8906 1.75 14.2499 1.75C12.6006 1.75 11.1092 2.37891 10.0499 3.52078C8.97917 4.67523 8.45745 6.24422 8.57995 7.93844C8.82276 11.2809 11.3663 14 14.2499 14C17.1336 14 19.6728 11.2815 19.9194 7.93953C20.0435 6.26062 19.5185 4.69492 18.4412 3.53172ZM23.8749 26.25H4.62495C4.37298 26.2533 4.12345 26.2003 3.89452 26.0951C3.66559 25.9898 3.463 25.8348 3.30151 25.6413C2.94604 25.2164 2.80276 24.6362 2.90885 24.0494C3.37042 21.4889 4.81088 19.338 7.07495 17.8281C9.08635 16.4877 11.6342 15.75 14.2499 15.75C16.8657 15.75 19.4135 16.4883 21.4249 17.8281C23.689 19.3375 25.1295 21.4884 25.591 24.0488C25.6971 24.6356 25.5539 25.2159 25.1984 25.6408C25.0369 25.8343 24.8344 25.9894 24.6054 26.0948C24.3765 26.2002 24.127 26.2532 23.8749 26.25Z" fill="currentColor"/>
</svg>
