<svg width="29" height="28" viewBox="0 0 29 28" fill="none" xmlns="http://www.w3.org/2000/svg">
<path d="M14.75 2.625C14.75 2.39294 14.8422 2.17038 15.0063 2.00628C15.1704 1.84219 15.393 1.75 15.625 1.75C17.1188 1.75 18.598 2.04422 19.978 2.61587C21.3581 3.18752 22.6121 4.02539 23.6684 5.08166C24.7246 6.13793 25.5625 7.3919 26.1341 8.77198C26.7058 10.1521 27 11.6312 27 13.125C27 13.3571 26.9078 13.5796 26.7437 13.7437C26.5796 13.9078 26.3571 14 26.125 14H15.625C15.393 14 15.1704 13.9078 15.0063 13.7437C14.8422 13.5796 14.75 13.3571 14.75 13.125V2.625ZM13 6.1635C13 6.04195 12.9747 5.92173 12.9257 5.81051C12.8766 5.69929 12.805 5.5995 12.7153 5.5175C12.6255 5.43551 12.5197 5.37311 12.4045 5.33429C12.2893 5.29546 12.1673 5.28106 12.0463 5.292C10.059 5.47318 8.16459 6.21688 6.58482 7.43598C5.00505 8.65507 3.80537 10.2991 3.12631 12.1755C2.44726 14.0518 2.31693 16.0828 2.75061 18.0306C3.18429 19.9784 4.16401 21.7622 5.57502 23.1732C6.98602 24.5843 8.76988 25.564 10.7177 25.9977C12.6654 26.4313 14.6964 26.301 16.5728 25.6219C18.4492 24.9429 20.0932 23.7432 21.3123 22.1634C22.5314 20.5837 23.2751 18.6892 23.4563 16.702C23.4669 16.5812 23.4524 16.4596 23.4136 16.3447C23.3747 16.2299 23.3124 16.1243 23.2307 16.0348C23.1489 15.9453 23.0494 15.8738 22.9385 15.8247C22.8276 15.7757 22.7078 15.7503 22.5865 15.75H13V6.1635Z" fill="currentColor"/>
</svg>
