<svg width="25" height="24" viewBox="0 0 25 24" fill="none" xmlns="http://www.w3.org/2000/svg">
<path d="M18 12C17.6022 12 17.2206 11.842 16.9393 11.5607C16.658 11.2794 16.5 10.8978 16.5 10.5C16.5 10.1022 16.658 9.72064 16.9393 9.43934C17.2206 9.15804 17.6022 9 18 9C18.3978 9 18.7794 9.15804 19.0607 9.43934C19.342 9.72064 19.5 10.1022 19.5 10.5C19.5 10.8978 19.342 11.2794 19.0607 11.5607C18.7794 11.842 18.3978 12 18 12ZM15 8C14.6022 8 14.2206 7.84196 13.9393 7.56066C13.658 7.27936 13.5 6.89782 13.5 6.5C13.5 6.10218 13.658 5.72064 13.9393 5.43934C14.2206 5.15804 14.6022 5 15 5C15.3978 5 15.7794 5.15804 16.0607 5.43934C16.342 5.72064 16.5 6.10218 16.5 6.5C16.5 6.89782 16.342 7.27936 16.0607 7.56066C15.7794 7.84196 15.3978 8 15 8ZM10 8C9.60218 8 9.22064 7.84196 8.93934 7.56066C8.65804 7.27936 8.5 6.89782 8.5 6.5C8.5 6.10218 8.65804 5.72064 8.93934 5.43934C9.22064 5.15804 9.60218 5 10 5C10.3978 5 10.7794 5.15804 11.0607 5.43934C11.342 5.72064 11.5 6.10218 11.5 6.5C11.5 6.89782 11.342 7.27936 11.0607 7.56066C10.7794 7.84196 10.3978 8 10 8ZM7 12C6.60218 12 6.22064 11.842 5.93934 11.5607C5.65804 11.2794 5.5 10.8978 5.5 10.5C5.5 10.1022 5.65804 9.72064 5.93934 9.43934C6.22064 9.15804 6.60218 9 7 9C7.39782 9 7.77936 9.15804 8.06066 9.43934C8.34196 9.72064 8.5 10.1022 8.5 10.5C8.5 10.8978 8.34196 11.2794 8.06066 11.5607C7.77936 11.842 7.39782 12 7 12ZM12.5 3C10.1131 3 7.82387 3.94821 6.13604 5.63604C4.44821 7.32387 3.5 9.61305 3.5 12C3.5 14.3869 4.44821 16.6761 6.13604 18.364C7.82387 20.0518 10.1131 21 12.5 21C12.8978 21 13.2794 20.842 13.5607 20.5607C13.842 20.2794 14 19.8978 14 19.5C14 19.11 13.85 18.76 13.61 18.5C13.38 18.23 13.23 17.88 13.23 17.5C13.23 17.1022 13.388 16.7206 13.6693 16.4393C13.9506 16.158 14.3322 16 14.73 16H16.5C17.8261 16 19.0979 15.4732 20.0355 14.5355C20.9732 13.5979 21.5 12.3261 21.5 11C21.5 6.58 17.47 3 12.5 3Z" fill="currentColor"/>
</svg>
