<svg width="25" height="24" viewBox="0 0 25 24" fill="none" xmlns="http://www.w3.org/2000/svg">
<path d="M17.5 22C17.2167 22 16.9793 21.904 16.788 21.712C16.5967 21.52 16.5007 21.2827 16.5 21C16.4993 20.7173 16.5953 20.48 16.788 20.288C16.9807 20.096 17.218 20 17.5 20H20.5V18H17.5C17.2167 18 16.9793 17.904 16.788 17.712C16.5967 17.52 16.5007 17.2827 16.5 17C16.4993 16.7173 16.5953 16.48 16.788 16.288C16.9807 16.096 17.218 16 17.5 16H20.5V14H17.5C17.2167 14 16.9793 13.904 16.788 13.712C16.5967 13.52 16.5007 13.2827 16.5 13C16.4993 12.7173 16.5953 12.48 16.788 12.288C16.9807 12.096 17.218 12 17.5 12H20.5V10H17.5C17.2167 10 16.9793 9.904 16.788 9.712C16.5967 9.52 16.5007 9.28267 16.5 9C16.4993 8.71733 16.5953 8.48 16.788 8.288C16.9807 8.096 17.218 8 17.5 8H20.5V6H17.5C17.2167 6 16.9793 5.904 16.788 5.712C16.5967 5.52 16.5007 5.28267 16.5 5C16.4993 4.71733 16.5953 4.48 16.788 4.288C16.9807 4.096 17.218 4 17.5 4H21.5C22.05 4 22.521 4.196 22.913 4.588C23.305 4.98 23.5007 5.45067 23.5 6V20C23.5 20.55 23.3043 21.021 22.913 21.413C22.5217 21.805 22.0507 22.0007 21.5 22H17.5ZM5.5 22L1.5 11L6.5 8V2H10.5V8L15.5 11L11.5 22H5.5Z" fill="currentColor"/>
</svg>
