<svg width="25" height="24" viewBox="0 0 25 24" fill="none" xmlns="http://www.w3.org/2000/svg">
<g clip-path="url(#clip0_6_2466)">
<path d="M8.75 4.5V1.5C8.75 1.30109 8.82902 1.11032 8.96967 0.96967C9.11032 0.829018 9.30109 0.75 9.5 0.75C9.69892 0.75 9.88968 0.829018 10.0303 0.96967C10.171 1.11032 10.25 1.30109 10.25 1.5V4.5C10.25 4.69891 10.171 4.88968 10.0303 5.03033C9.88968 5.17098 9.69892 5.25 9.5 5.25C9.30109 5.25 9.11032 5.17098 8.96967 5.03033C8.82902 4.88968 8.75 4.69891 8.75 4.5ZM12.5 5.25C12.6989 5.25 12.8897 5.17098 13.0303 5.03033C13.171 4.88968 13.25 4.69891 13.25 4.5V1.5C13.25 1.30109 13.171 1.11032 13.0303 0.96967C12.8897 0.829018 12.6989 0.75 12.5 0.75C12.3011 0.75 12.1103 0.829018 11.9697 0.96967C11.829 1.11032 11.75 1.30109 11.75 1.5V4.5C11.75 4.69891 11.829 4.88968 11.9697 5.03033C12.1103 5.17098 12.3011 5.25 12.5 5.25ZM15.5 5.25C15.6989 5.25 15.8897 5.17098 16.0303 5.03033C16.171 4.88968 16.25 4.69891 16.25 4.5V1.5C16.25 1.30109 16.171 1.11032 16.0303 0.96967C15.8897 0.829018 15.6989 0.75 15.5 0.75C15.3011 0.75 15.1103 0.829018 14.9697 0.96967C14.829 1.11032 14.75 1.30109 14.75 1.5V4.5C14.75 4.69891 14.829 4.88968 14.9697 5.03033C15.1103 5.17098 15.3011 5.25 15.5 5.25ZM24.35 8.55C24.2307 8.39087 24.053 8.28567 23.8561 8.25754C23.6592 8.22941 23.4591 8.28065 23.3 8.4L21.5 9.75V7.5C21.5 7.30109 21.421 7.11032 21.2803 6.96967C21.1397 6.82902 20.9489 6.75 20.75 6.75H4.25C4.05109 6.75 3.86033 6.82902 3.71967 6.96967C3.57902 7.11032 3.5 7.30109 3.5 7.5V9.75L1.7 8.4C1.54087 8.28065 1.34085 8.22941 1.14394 8.25754C0.947024 8.28567 0.76935 8.39087 0.650003 8.55C0.530656 8.70913 0.47941 8.90915 0.507541 9.10607C0.535671 9.30298 0.640873 9.48065 0.800003 9.6L3.5 11.625V17.25C3.5 18.0456 3.81607 18.8087 4.37868 19.3713C4.94129 19.9339 5.70435 20.25 6.5 20.25H18.5C19.2957 20.25 20.0587 19.9339 20.6213 19.3713C21.1839 18.8087 21.5 18.0456 21.5 17.25V11.625L24.2 9.6C24.2788 9.5409 24.3452 9.46687 24.3954 9.38212C24.4455 9.29737 24.4785 9.20357 24.4925 9.10607C24.5064 9.00856 24.501 8.90927 24.4765 8.81386C24.4521 8.71845 24.4091 8.62879 24.35 8.55Z" fill="currentColor"/>
</g>
<defs>
<clipPath id="clip0_6_2466">
<rect width="24" height="24" fill="white" transform="translate(0.5)"/>
</clipPath>
</defs>
</svg>
