<svg width="27" height="30" viewBox="0 0 27 30" fill="none" xmlns="http://www.w3.org/2000/svg">
<g filter="url(#filter0_d_6_2407)">
<path d="M4.5 17.2C4.5 16.9333 4.58767 16.7083 4.763 16.525C4.93833 16.3417 5.15067 16.25 5.4 16.25C5.53333 16.25 5.66267 16.271 5.788 16.313C5.91333 16.355 6.034 16.4173 6.15 16.5C6.36667 16.6333 6.58333 16.75 6.8 16.85C7.01667 16.95 7.25 17 7.5 17C8.05 17 8.521 16.8043 8.913 16.413C9.305 16.0217 9.50067 15.5507 9.5 15C9.49933 14.4493 9.30367 13.9787 8.913 13.588C8.52233 13.1973 8.05133 13.0013 7.5 13C7.25 13 7.00833 13.0417 6.775 13.125C6.54167 13.2083 6.33333 13.3333 6.15 13.5C6.05 13.5833 5.93333 13.646 5.8 13.688C5.66667 13.73 5.53333 13.7507 5.4 13.75C5.15 13.75 4.93767 13.6583 4.763 13.475C4.58833 13.2917 4.50067 13.0667 4.5 12.8V9C4.5 8.71667 4.596 8.47933 4.788 8.288C4.98 8.09667 5.21733 8.00067 5.5 8H9.25C9.16667 7.75 9.10433 7.5 9.063 7.25C9.02167 7 9.00067 6.75 9 6.5C9 5.25 9.43767 4.18767 10.313 3.313C11.1883 2.43833 12.2507 2.00067 13.5 2C14.7493 1.99933 15.812 2.437 16.688 3.313C17.564 4.189 18.0013 5.25133 18 6.5C18 6.75 17.9793 7 17.938 7.25C17.8967 7.5 17.834 7.75 17.75 8H21.5C21.7833 8 22.021 8.096 22.213 8.288C22.405 8.48 22.5007 8.71733 22.5 9V12.8C22.5 13.0833 22.404 13.321 22.212 13.513C22.02 13.705 21.7827 13.8007 21.5 13.8C21.3667 13.8 21.25 13.7707 21.15 13.712C21.05 13.6533 20.95 13.5827 20.85 13.5C20.6667 13.3333 20.4583 13.2083 20.225 13.125C19.9917 13.0417 19.75 13 19.5 13C18.95 13 18.479 13.196 18.087 13.588C17.695 13.98 17.4993 14.4507 17.5 15C17.5007 15.5493 17.6967 16.0203 18.088 16.413C18.4793 16.8057 18.95 17.0013 19.5 17C19.75 17 19.9917 16.9583 20.225 16.875C20.4583 16.7917 20.6667 16.6667 20.85 16.5C20.9333 16.4167 21.0293 16.3457 21.138 16.287C21.2467 16.2283 21.3673 16.1993 21.5 16.2C21.7833 16.2 22.021 16.296 22.213 16.488C22.405 16.68 22.5007 16.9173 22.5 17.2V21C22.5 21.2833 22.404 21.521 22.212 21.713C22.02 21.905 21.7827 22.0007 21.5 22H5.5C5.21667 22 4.97933 21.904 4.788 21.712C4.59667 21.52 4.50067 21.2827 4.5 21V17.2Z" fill="currentColor"/>
</g>
<defs>
<filter id="filter0_d_6_2407" x="-2.5" y="0" width="32" height="32" filterUnits="userSpaceOnUse" color-interpolation-filters="sRGB">
<feFlood flood-opacity="0" result="BackgroundImageFix"/>
<feColorMatrix in="SourceAlpha" type="matrix" values="0 0 0 0 0 0 0 0 0 0 0 0 0 0 0 0 0 0 127 0" result="hardAlpha"/>
<feOffset dy="4"/>
<feGaussianBlur stdDeviation="2"/>
<feComposite in2="hardAlpha" operator="out"/>
<feColorMatrix type="matrix" values="0 0 0 0 0 0 0 0 0 0 0 0 0 0 0 0 0 0 0.25 0"/>
<feBlend mode="normal" in2="BackgroundImageFix" result="effect1_dropShadow_6_2407"/>
<feBlend mode="normal" in="SourceGraphic" in2="effect1_dropShadow_6_2407" result="shape"/>
</filter>
</defs>
</svg>
