<svg width="20" height="20" viewBox="0 0 20 20" fill="none" xmlns="http://www.w3.org/2000/svg">
<path d="M10.5 1.83329C10.3558 1.72511 10.1803 1.66663 10 1.66663C9.81969 1.66663 9.64425 1.72511 9.5 1.83329C9.15283 2.09927 8.83268 2.39877 8.54417 2.72746C8.10833 3.21829 7.5 4.04579 7.5 4.99996C7.5 5.663 7.76339 6.29889 8.23223 6.76773C8.70107 7.23657 9.33696 7.49996 10 7.49996H5C4.33696 7.49996 3.70107 7.76335 3.23223 8.23219C2.76339 8.70103 2.5 9.33692 2.5 9.99996V11.6666C2.5 12.6966 3.67583 13.285 4.5 12.6666L5.05583 12.25C5.20008 12.1418 5.37552 12.0833 5.55583 12.0833C5.73614 12.0833 5.91159 12.1418 6.05583 12.25L6.2775 12.4166C6.71024 12.7412 7.23657 12.9166 7.7775 12.9166C8.31843 12.9166 8.84476 12.7412 9.2775 12.4166L9.5 12.25C9.64425 12.1418 9.81969 12.0833 10 12.0833C10.1803 12.0833 10.3558 12.1418 10.5 12.25L10.7225 12.4166C11.1552 12.7412 11.6816 12.9166 12.2225 12.9166C12.7634 12.9166 13.2898 12.7412 13.7225 12.4166L13.9442 12.25C14.0884 12.1418 14.2639 12.0833 14.4442 12.0833C14.6245 12.0833 14.7999 12.1418 14.9442 12.25L15.5 12.6666C16.3242 13.285 17.5 12.6966 17.5 11.6666V9.99996C17.5 9.33692 17.2366 8.70103 16.7678 8.23219C16.2989 7.76335 15.663 7.49996 15 7.49996H10C10.663 7.49996 11.2989 7.23657 11.7678 6.76773C12.2366 6.29889 12.5 5.663 12.5 4.99996C12.5 4.04579 11.8917 3.21829 11.4558 2.72746C11.1675 2.40246 10.8475 2.09413 10.5 1.83329ZM3.33333 14.5125V16.6666C3.33333 17.1087 3.50893 17.5326 3.82149 17.8451C4.13405 18.1577 4.55797 18.3333 5 18.3333H15C15.442 18.3333 15.8659 18.1577 16.1785 17.8451C16.4911 17.5326 16.6667 17.1087 16.6667 16.6666V14.5125C16.4727 14.5825 16.2643 14.6028 16.0605 14.5715C15.8567 14.5402 15.664 14.4583 15.5 14.3333L14.9442 13.9166C14.7999 13.8084 14.6245 13.75 14.4442 13.75C14.2639 13.75 14.0884 13.8084 13.9442 13.9166L13.7225 14.0833C13.2898 14.4078 12.7634 14.5833 12.2225 14.5833C11.6816 14.5833 11.1552 14.4078 10.7225 14.0833L10.5 13.9166C10.3558 13.8084 10.1803 13.75 10 13.75C9.81969 13.75 9.64425 13.8084 9.5 13.9166L9.2775 14.0833C8.84476 14.4078 8.31843 14.5833 7.7775 14.5833C7.23657 14.5833 6.71024 14.4078 6.2775 14.0833L6.05583 13.9166C5.91159 13.8084 5.73614 13.75 5.55583 13.75C5.37552 13.75 5.20008 13.8084 5.05583 13.9166L4.5 14.3333C4.33601 14.4583 4.1433 14.5402 3.93949 14.5715C3.73568 14.6028 3.52727 14.5825 3.33333 14.5125Z" fill="currentColor"/>
</svg>
