<svg width="25" height="24" viewBox="0 0 25 24" fill="none" xmlns="http://www.w3.org/2000/svg">
<g clip-path="url(#clip0_6_2072)">
<path d="M2.5 22L7.5 8L16.5 17L2.5 22ZM15.05 12.55L14 11.5L21.525 3.975L24.05 6.5L23 7.55L21.525 6.075L15.05 12.55ZM11.05 8.55L10 7.5L11.45 6.05L9.95 4.55L11 3.5L13.55 6.05L11.05 8.55ZM13.05 10.55L12 9.5L16.475 5.025L14 2.55L15.05 1.5L18.575 5.025L13.05 10.55ZM17.05 14.55L16 13.5L19.525 9.975L23.05 13.5L22 14.55L19.525 12.075L17.05 14.55Z" fill="currentColor"/>
</g>
<defs>
<clipPath id="clip0_6_2072">
<rect width="24" height="24" fill="white" transform="translate(0.5)"/>
</clipPath>
</defs>
</svg>
