<svg width="25" height="24" viewBox="0 0 25 24" fill="none" xmlns="http://www.w3.org/2000/svg">
<path d="M14.511 4.624C15.2819 5.47645 15.831 6.5056 16.1099 7.62057C16.3888 8.73553 16.3888 9.90201 16.11 11.017L16.039 11.279L19.439 15.652C19.7253 16.02 19.9114 16.4558 19.9792 16.917C20.047 17.3783 19.9943 17.8492 19.826 18.284C19.9462 18.3177 20.0726 18.3228 20.195 18.299L20.315 18.269C20.5655 18.1891 20.8374 18.211 21.0718 18.3301C21.3062 18.4492 21.4843 18.6558 21.5676 18.9052C21.6508 19.1546 21.6324 19.4267 21.5165 19.6627C21.4005 19.8987 21.1963 20.0795 20.948 20.166C20.2979 20.3894 19.5879 20.363 18.956 20.092C18.7593 20.0089 18.5728 19.9035 18.4 19.778C17.9855 19.9611 17.5315 20.037 17.0799 19.9985C16.6283 19.9601 16.1937 19.8086 15.816 19.558L15.652 19.439L11.28 16.039C10.1329 16.3738 8.91915 16.4093 7.7544 16.1421C6.58965 15.875 5.51268 15.3142 4.62604 14.513C6.7628 13.4701 8.71082 12.0783 10.39 10.395C12.075 8.7142 13.4678 6.76311 14.511 4.624ZM12.919 3.314C11.954 5.4232 10.6185 7.34224 8.97604 8.98C7.33922 10.621 5.42158 11.9554 3.31404 12.92C2.51203 11.5811 2.18029 10.0126 2.37148 8.46358C2.56267 6.91457 3.26584 5.47383 4.36935 4.37009C5.47286 3.26635 6.91346 2.56288 8.46242 2.37137C10.0114 2.17985 11.5799 2.51227 12.919 3.314Z" fill="currentColor"/>
</svg>
