<svg width="25" height="24" viewBox="0 0 25 24" fill="none" xmlns="http://www.w3.org/2000/svg">
<path d="M12 0.5C12.5 0.75 13.5 2.4 13.5 3.5C13.5 4.6 12.83 5 12 5C11.17 5 10.5 4.85 10.5 3.75C10.5 2.65 11.5 2 12 0.5ZM19 9C21.5 9 23.5 11 23.5 13.5C23.5 15.06 22.71 16.43 21.5 17.24V23H3.5V17.24C2.29 16.43 1.5 15.06 1.5 13.5C1.5 11 3.5 9 6 9H10.5V6H13.5V9H19ZM12.5 16C13.163 16 13.7989 15.7366 14.2678 15.2678C14.7366 14.7989 15 14.163 15 13.5H16.5C16.5 14.163 16.7634 14.7989 17.2322 15.2678C17.7011 15.7366 18.337 16 19 16C19.663 16 20.2989 15.7366 20.7678 15.2678C21.2366 14.7989 21.5 14.163 21.5 13.5C21.5 12.837 21.2366 12.2011 20.7678 11.7322C20.2989 11.2634 19.663 11 19 11H6C5.33696 11 4.70107 11.2634 4.23223 11.7322C3.76339 12.2011 3.5 12.837 3.5 13.5C3.5 14.163 3.76339 14.7989 4.23223 15.2678C4.70107 15.7366 5.33696 16 6 16C6.66304 16 7.29893 15.7366 7.76777 15.2678C8.23661 14.7989 8.5 14.163 8.5 13.5H10C10 14.163 10.2634 14.7989 10.7322 15.2678C11.2011 15.7366 11.837 16 12.5 16Z" fill="currentColor"/>
</svg>
