<svg width="24" height="24" viewBox="0 0 24 24" fill="none" xmlns="http://www.w3.org/2000/svg">
<path d="M8.56603 5.96C8.49451 5.46734 8.52982 4.96507 8.66959 4.48727C8.80935 4.00947 9.05028 3.56734 9.37602 3.19089C9.70177 2.81444 10.1047 2.51248 10.5575 2.30553C11.0102 2.09857 11.5022 1.99146 12 1.99146C12.4978 1.99146 12.9898 2.09857 13.4426 2.30553C13.8954 2.51248 14.2983 2.81444 14.624 3.19089C14.9498 3.56734 15.1907 4.00947 15.3305 4.48727C15.4702 4.96507 15.5056 5.46734 15.434 5.96L14.282 14.02C14.2023 14.5683 13.9278 15.0696 13.5087 15.4321C13.0897 15.7947 12.5541 15.9942 12 15.9942C11.4459 15.9942 10.9104 15.7947 10.4913 15.4321C10.0723 15.0696 9.79776 14.5683 9.71803 14.02L8.56603 5.96ZM14 20C14 20.5304 13.7893 21.0391 13.4142 21.4142C13.0392 21.7893 12.5305 22 12 22C11.4696 22 10.9609 21.7893 10.5858 21.4142C10.2107 21.0391 10 20.5304 10 20C10 19.4696 10.2107 18.9609 10.5858 18.5858C10.9609 18.2107 11.4696 18 12 18C12.5305 18 13.0392 18.2107 13.4142 18.5858C13.7893 18.9609 14 19.4696 14 20Z" fill="currentColor"/>
</svg>
