<svg width="24" height="24" viewBox="0 0 24 24" fill="none" xmlns="http://www.w3.org/2000/svg">
<g clip-path="url(#clip0_6_2055)">
<path d="M10.0098 0.0867767C8.52092 0.0867767 7.47138 1.14093 7.47138 2.62524C7.47138 4.25908 8.76185 5.32155 10.0098 6.34616C10.4178 6.68124 10.8166 7.01816 11.1923 7.38462H4.61538C3.40062 7.38462 2.39169 8.17016 2.01877 9.25939C2.01877 9.25939 2.20708 11.0769 5.07692 11.0769C7.74462 11.0769 7.84338 9.72001 7.84615 9.6637C7.85234 9.54592 7.90383 9.4351 7.98985 9.35441C8.07587 9.27372 8.18976 9.22942 8.30769 9.23078C8.42885 9.2347 8.54398 9.28458 8.6297 9.37031C8.71542 9.45603 8.76531 9.57115 8.76923 9.69232C8.77292 9.73939 8.90308 11.0769 12 11.0769C15.0969 11.0769 15.2262 9.72001 15.2308 9.6637C15.2405 9.54209 15.297 9.429 15.3884 9.34824C15.4798 9.26748 15.5991 9.22537 15.7209 9.23078C15.8391 9.23582 15.9506 9.28696 16.0315 9.37323C16.1125 9.45951 16.1564 9.57405 16.1538 9.69232C16.1557 9.74124 16.2369 11.0769 18.9231 11.0769C21.8797 11.0769 21.9812 9.25939 21.9812 9.25939C21.6083 8.17108 20.5975 7.38462 19.3846 7.38462H12.8077C13.1869 7.02182 13.5814 6.67535 13.9902 6.34616C15.2372 5.32155 16.5286 4.25816 16.5286 2.62524C16.5286 1.14093 15.48 0.0867767 13.9902 0.0867767C13.1317 0.0867767 12.4052 0.701546 12 1.12524C11.5966 0.700623 10.8674 0.0867767 10.0098 0.0867767ZM8.33538 10.8175C7.88492 11.4046 6.96185 12 5.07692 12C3.22615 12 2.30677 11.4231 1.84615 10.8462V14.7692H22.1538V10.8462C21.6932 11.4185 20.7711 12 18.9231 12C17.0308 12 16.1132 11.4028 15.6637 10.8175C15.1523 11.4019 14.1092 12 12 12C9.88338 12 8.84492 11.4046 8.33631 10.8175H8.33538ZM2.76923 15.6923C1.55446 15.6923 0.545538 16.4779 0.172615 17.5671C0.173538 17.5671 0.360923 19.3846 3.23077 19.3846C5.89846 19.3846 6.92031 18.0277 6.92308 17.9714C6.92926 17.8536 6.98075 17.7428 7.06677 17.6621C7.15279 17.5814 7.26668 17.5371 7.38462 17.5385C7.50578 17.5424 7.62091 17.5923 7.70663 17.678C7.79235 17.7637 7.84223 17.8788 7.84615 18C7.84985 18.0471 8.90308 19.3846 12 19.3846C15.0969 19.3846 16.1492 18.0277 16.1538 17.9714C16.1635 17.8498 16.22 17.7367 16.3115 17.6559C16.4029 17.5752 16.5221 17.5331 16.644 17.5385C16.7622 17.5435 16.8737 17.5947 16.9546 17.6809C17.0355 17.7672 17.0794 17.8817 17.0769 18C17.0788 18.0489 18.0831 19.3846 20.7692 19.3846C23.7258 19.3846 23.8274 17.5671 23.8274 17.5671C23.4545 16.4788 22.4437 15.6923 21.2308 15.6923H2.76923ZM7.41323 19.1252C6.96185 19.7123 5.11569 20.3077 3.23077 20.3077C1.38 20.3077 0.460615 19.7308 0 19.1539V22.1539C0 23.6825 1.24062 24 2.76923 24H21.2308C22.7594 24 24 23.6825 24 22.1539V19.1539C23.5394 19.7262 22.6172 20.3077 20.7692 20.3077C18.8769 20.3077 17.0363 19.7105 16.5868 19.1252C16.0754 19.7095 14.1092 20.3077 12 20.3077C9.88338 20.3077 7.92185 19.7123 7.41323 19.1252Z" fill="currentColor"/>
</g>
<defs>
<clipPath id="clip0_6_2055">
<rect width="24" height="24" fill="white"/>
</clipPath>
</defs>
</svg>
